# xmcd
#
# Track frame offsets:
#	150
#	19586
#	41687
#	65168
#	79358
#	99771
#	112675
#	129222
#	150983
#	166464
#	190932
#	204559
#	220066
#
# Disc length: 3164 seconds
# Revision: 0
# Processed by: cddbd v1.5.2PL0 Copyright (c) Steve Scherf et al.
# Submitted via: dBpowerAMP V12.0
#
DISCID=a10c5a0d
DTITLE=The Flaming Mudcats - Gave You What You Wanted
DYEAR=2011
DGENRE=Blues
TTITLE0=Big City Mama
TTITLE1=Champagne, Diamonds And A Fast Car
TTITLE2=Gimme What You Got
TTITLE3=Mudcat Boogie
TTITLE4=Double D's
TTITLE5=Devil Chasing Me
TTITLE6=Five Star Lodge
TTITLE7=Cool It Down
TTITLE8=Sugar Mama
TTITLE9=New Technology Blues
TTITLE10=Hate To Lose You
TTITLE11=I Wait For You
TTITLE12=Twenty Dollar Gig
EXTD=
EXTT0=
EXTT1=
EXTT2=
EXTT3=
EXTT4=
EXTT5=
EXTT6=
EXTT7=
EXTT8=
EXTT9=
EXTT10=
EXTT11=
EXTT12=
PLAYORDER=
